<svg id="图层_2" data-name="图层 2" xmlns="http://www.w3.org/2000/svg" viewBox="0 0 409.98 283.56"><defs><style>.cls-1{stroke:#000;stroke-miterlimit:10;}</style></defs><title>椰子树</title><path class="cls-1" d="M107.33,201c3.75-2.91,17-14.14,26.52-19.55,26.45-15,22.62-15.47,39.33-23.67,9.35-4.59,21.54-10.48,38.67-15,26.27-6.93,46.32-5.93,50.67-5.67,2.3,0.14,10.31,1.54,26.33,4.33a61.54,61.54,0,0,1,20,8c1.4,0.89,3.77,2.54,4,5,0.1,1.07-.2,2.34-1.67,4.33a22,22,0,0,1-9.33,7,41.34,41.34,0,0,1-16.67,2.67c-8.22-.16-12.74-1.5-22.33-3.33a209.55,209.55,0,0,0-21.67-3.33c-13.75-1.14-24.47.8-40.33,3.67-11.67,2.11-19.93,4.41-22,5a152.62,152.62,0,0,0-25.33,9c-10.27,4.84-8,5.49-21.67,12.33-11,5.51-15.17,8.67-16.63,9.92a31,31,0,0,1-7.71,5.08c-0.46.2-3.9,1.67-4.67,0.67-0.64-.85.78-3.18,1.33-3.67C106,202.23,107.23,201.12,107.33,201Z" transform="translate(-102.19 -113.44)"/><path class="cls-1" d="M110.89,244.2c5.28-6.19,10.68-9.75,17-13,9.4-4.93,7-5.17,18.33-11.67a165.76,165.76,0,0,1,27-12.67c16-5.68,28.5-6.67,45.33-8a157.72,157.72,0,0,1,38.67,2.67c3.27,0.65,10.86,2.32,14,8a9.9,9.9,0,0,1,1.33,5.67c-0.33,3.71-3,6.12-4.33,7.33-2.14,1.9-4.91,3.38-11.33,4.67a69.31,69.31,0,0,1-24,.67c-5.57-.9-5.7-1.61-11-2.67-7.62-1.52-13.66-1.31-25.33-.33-19.64,1.64-29.46,2.46-37.33,4.33a156.07,156.07,0,0,0-26.33,8.67c-1.75.78-7.82,3.56-14.33,6.67l-7.67,3.67h0s-3.13,2.14-3.67,1.67,1.81-3.15,3.71-5.62" transform="translate(-102.19 -113.44)"/><path class="cls-1" d="M123.19,278.16c2.4-1.2,5.57-2.72,9.33-4.33a181.1,181.1,0,0,1,18.33-6.67,160.44,160.44,0,0,1,29.67-6.67c8.7-1,14.24-.91,24-0.67,0,0,2.91.07,18.33,4a4.51,4.51,0,0,1,2.33,1.33,5.49,5.49,0,0,1,1,4.17,8.8,8.8,0,0,1-2.67,5.17c-1.13,1.2-3.59,3.41-10.67,5.33a44.51,44.51,0,0,1-11.5,1.83c-7.56.17-10.05-1.66-18.5-2.83-3.38-.47-7.64-0.48-16.17-0.5-19,0-21.83,0-24.33.5-6.75,1.22-10.3,1.87-13.67,3.5-0.34.16-2.11,0.78-5.67,2-1.84.63-3.33,1.13-4.83,0.5-0.23-.1-1.5-0.65-1.54-1.5s0.82-1.26,1.75-1.87C119.48,280.73,121.1,279.64,123.19,278.16Z" transform="translate(-102.19 -113.44)"/><path class="cls-1" d="M131.27,312.95c7.16-2.82,10.73-4.23,11.13-4.37a75.5,75.5,0,0,1,16.13-3.75,62,62,0,0,1,20.63,1.5c7.33,1.55,10.23,3.29,12,5.75,0.6,0.84,2.42,3.35,1.75,6.13a6.34,6.34,0,0,1-2.12,3.25c-1.09,1-4.53,3.58-14.25,3-6.65-.4-6.75-1.72-15.12-2.62a43.38,43.38,0,0,1-8.25-1.5c-1.94-.57-2.14-0.79-3.62-1.12-2.59-.59-4.22-0.42-8.37-0.25-7.63.32-6.32-.07-9.75,0.25-1.25.12-3,.12-6.62,0.13-1.89,0-2.95,0-3.12-.5-0.32-.87,2.45-2.61,2.88-2.87a30.77,30.77,0,0,1,4.42-2C130.55,313.23,131.27,312.95,131.27,312.95Z" transform="translate(-102.19 -113.44)"/><path class="cls-1" d="M342.52,203.82c0-5.37,1.38-10.66,2-16,0.68-5.85,3.86-9.76,8.67-15.67,3.11-3.83,5.47-5.65,20.33-16,7.26-5.06,14.33-10.39,21.67-15.33,3.94-2.65,10.64-7.09,15.33-13,3.41-4.29,5.11-6.44,5.67-9.67,0.29-1.72.23-3.39,1.33-4,1.5-.83,4.14.85,5.67,2.33,0.77,0.75,3.14,3.29,4,12.33,0.68,7.2-.37,10.29,2,15,0.87,1.72,1.43,2.8,2.67,3.33,2.28,1,5.08-.65,13.67-7,8-5.91,10.55-8.18,13.33-7.33,2.22,0.68,3.33,3,4,4.33,2.7,5.56.49,11.9-2,19,0,0-.2.56-3.67,9.33a11.23,11.23,0,0,0,2.67,3.67c4.79,4.3,10.86,1.63,19,3.67,0.47,0.12,4.43,2.3,12.33,6.67,8.64,4.77,13,7.25,17,12,2.12,2.54,4.05,4.92,3.33,7-0.77,2.23-5,2.82-13.33,4-5.47.77-7.42,0.59-8.67-.67-1.09-1.1-.68-2.07-2.33-4.67-1.09-1.71-2.38-3.74-4-3.67s-2.86,2.16-3.33,3.67c-0.79,2.53.52,3.86-.33,5s-2.71.63-7.67,0c-7.91-1-9.72-.61-11-2.33-1.44-1.93-.42-4.13-2-5a3.44,3.44,0,0,0-4,1c-1.72,2.26,1.07,6.6,1.33,7,3,4.5,6.88,3.78,11.67,7.67,1.48,1.2,3.21,4,6.67,9.67,5.9,9.63,7.79,14.31,8.67,16.67,2,5.46,3.57,9.72,1.67,11.67-1,1.06-3.26.83-7.67,0.33-6.7-.76-10.62-1.21-11.67-3.67-0.68-1.6.62-2.25,0.33-5.67-0.18-2.15-1-5.74-2.67-6-1.4-.22-3,2-3.67,3.33-1.23,2.39-.53,3.85-1.67,4.67-0.72.52-1.63,0.38-5-.67-4.62-1.44-6.93-2.16-7.67-3-2.51-2.85-1.06-7-2.33-7.33,0,0-.58-0.13-4,4.33-1.36,1-3.26,2-4.67,1.33-1.68-.8-1.19-3.36-2.67-7.67-0.42-1.23-2.81-8.17-6.33-8.33a3.9,3.9,0,0,0-3.33,2c-1,1.84,0,4.17.67,5.67a58.25,58.25,0,0,0,8,12.67c7.26,8.22,4.59,7.7,11,14.67,6.86,7.46,11.24,12.21,18.67,15.33,3.45,1.45,6.95,2.29,7,4,0,1.32-2,2.22-7,4.67-12.5,6.1-12.17,6.45-14.33,6.67-5.45.54-5.87-1.91-13-1.33-1.42.11-3.21,0.36-4-.67s0-2.45.67-6.67c0.4-2.66.63-4.34,0-4.67s-2,1-4.33,3.33c-2.88,2.91-2.92,3.56-4,4-1.45.59-2.9,0.06-8.33-3-9.29-5.22-10.41-6.65-11-8.33a11.31,11.31,0,0,1-.33-5.33c0.51-4,2.37-4.83,2.67-8.33s-1.09-6.68-2-6.67c-0.73,0-.91,2.18-3,7-1.65,3.81-2.47,4.59-3.33,5s-2.25.78-5-.33c-6.09-2.47-6.42-7.64-12.33-13-7.12-6.45-12-3.83-16-10a19.11,19.11,0,0,0-5.67-6.33c-1.64-1.11-2.77-1.86-4.33-2-3.05-.26-4.9,2-12.83,7a73.21,73.21,0,0,0-6.42,4.5c-6.51,5.49-10.94,8.54-13.06,10.29a203.41,203.41,0,0,0-23.35,21.9s-24.86,26.77-36.67,57c-0.74,1.9-1.43,4.09-.67,4.67,1,0.78,4-2,8.33-5.33a232.6,232.6,0,0,1,23.67-16,15.18,15.18,0,0,0,5-4c2.89-3.72,2.1-6.92,3.33-10.67,1.41-4.28,5.61-7.08,14-12.67,8.86-5.9,10.54-5.15,15.67-10,3.39-3.2,5.78-5.46,8-9.33,2.63-4.58,2.86-7.65,5.33-8.33s5.54,1.62,7,3.67c2,2.75,1.78,5.91,1.67,8-0.32,5.74-3.06,8.84-1.67,10.33,0.74,0.79,2.08.53,3.67,0.33,1.36-.17,5.24,0,13,0.33,7.1,0.31,11.53.5,12.67,3,0.9,2-.65,4.55-1.33,5.67-1.92,3.16-5.3,4.83-7,5.67-2.79,1.38-4.26,1.41-4.67,2.67-0.58,1.78,1.62,4,2,4.33,3,2.93,5.81,1.42,12,3.67,2.46,0.89,6.3,2.35,8.33,6a6.18,6.18,0,0,1,1,4.33c-0.74,3.33-5.33,5.07-8.67,5a6.4,6.4,0,0,1-4.33-1.33c-2-1.76-1.63-4.63-2.33-4.67s-0.72,3-2.67,5.67c-1.36,1.9-4.26,4.49-7,4-2.33-.41-3.88-2.92-6-6.33-1.65-2.67-2.17-4.42-3-4.33s-1.54,2.32-1.67,4c-0.3,3.87,2,5,1.33,7.67-0.6,2.41-2.67,2.55-3,5a6.35,6.35,0,0,0,1.33,4.33c2.11,3,5.25,3,13,6.67,2.89,1.37,3.61,1.92,3.67,2.67,0.16,2.12-5.23,4.1-7.67,5-3.06,1.13-7.57,2.79-13.33,2-2.8-.38-4.79-1.26-8.67-3-11.28-5.07-10.64-7.46-19.33-11-4.71-1.92-8-2.47-9-5.33-1-2.66.75-5.27-.67-6.67-1.19-1.17-3.64-.57-5.33,0-8.26,2.8-14.89,10.75-23,19-8.69,8.84-13.66,12.51-12.67,17.33a5.59,5.59,0,0,0,2,3.67c1.19,0.81,2.4.58,4,.67s3.37,0.73,6.67,2c5.21,2,8.86,4.53,15.67,8,7.1,3.62,10.65,5.43,13,6,3.57,0.86,7.07,1.1,9.33,4,0.32,0.41,2,2.51,1.33,4.33-1,2.8-6.63,3.19-8.67,3.33-11.68.82-23.3,3.5-35,3-14.21-.61-28.44.32-42.67,0.33-32.32,0-34.07-.05-37.67-0.67a258.46,258.46,0,0,0-27.81-3,6.39,6.39,0,0,1-4.19-1c-1.76-1.43-1.59-5.16-.33-7.67,1.75-3.5,5.63-4.71,10-6,10.86-3.22,16.29-4.82,19.67-5.67,20.39-5.09,22.32-8.69,22.67-10.67,0.27-1.55-.45-2.26-0.33-6.33a35.54,35.54,0,0,1,1-7.33,186.28,186.28,0,0,1,6.67-23,203.07,203.07,0,0,1,15.33-32,196.92,196.92,0,0,1,25.33-34c12.67-13.4,24.22-21.49,32.67-27.33,6.16-4.26,24.61-14.24,31.33-18.33,6.26-3.81,5.9-3.63,7.75-4.75,0.82-.49,2.38-0.84,3.5-2.17A4,4,0,0,0,342.52,203.82Z" transform="translate(-102.19 -113.44)"/><path class="cls-1" d="M414,317.49c0-.66.19-1.84,4.17-5,3.69-2.94,5.88-4.67,9.5-5.5,2.16-.49,4.25-1,6.5,0,3.62,1.56,4.78,5.63,5.17,7a9.82,9.82,0,0,1-.17,7.17,9.26,9.26,0,0,1-4.33,4.17c-3.75,1.94-7.51,1.11-9.5.67a18.52,18.52,0,0,1-8.5-4.67C415.15,319.86,414.06,318.89,414,317.49Z" transform="translate(-102.19 -113.44)"/><path class="cls-1" d="M386.52,346.66c0.84-1.9,2.48-1.95,6.17-4.17,3-1.83,3.1-2.51,4.33-2.5,1.93,0,3.36,1.69,5.33,4,1.78,2.09,2.67,3.13,2.67,4.67,0,2.92-3.16,4.8-3.5,5-2.82,1.63-5.83.83-8.33,0.17-2-.54-6.38-1.7-7-4.67A4.15,4.15,0,0,1,386.52,346.66Z" transform="translate(-102.19 -113.44)"/></svg>